<svg width="18" height="16" viewBox="0 0 18 16" fill="none" xmlns="http://www.w3.org/2000/svg">
<path d="M17.8661 7.38806C17.1415 5.82252 16.0802 4.43487 14.7573 3.32343L17.0313 1.058L15.9701 0L13.5002 2.4582C12.1332 1.67047 10.5793 1.26205 9.00013 1.27543C3.37499 1.27543 0.792674 5.95349 0.134157 7.38806C0.0457583 7.58031 0 7.78929 0 8.00075C0 8.21221 0.0457583 8.42118 0.134157 8.61343C0.858777 10.179 1.92012 11.5666 3.24299 12.6781L0.969678 14.9435L2.03021 16L4.50002 13.5418C5.86703 14.3295 7.42096 14.7379 9.00013 14.7246C14.6253 14.7246 17.2076 10.0465 17.8661 8.61194C17.9543 8.4199 18 8.21119 18 8C18 7.78881 17.9543 7.5801 17.8661 7.38806ZM4.50002 8C4.4986 7.17706 4.72496 6.36967 5.15423 5.66657C5.58349 4.96347 6.19904 4.39189 6.93321 4.01465C7.66737 3.63742 8.49173 3.46914 9.31566 3.52831C10.1396 3.58748 10.9312 3.87181 11.6035 4.35005L10.5144 5.43495C10.0572 5.16029 9.53401 5.0139 9.00013 5.0113C8.20446 5.0113 7.44138 5.32618 6.87876 5.88667C6.31614 6.44716 6.00006 7.20735 6.00006 8C6.00267 8.53185 6.14961 9.0531 6.42532 9.50854L5.33629 10.5934C4.7925 9.83718 4.50006 8.93027 4.50002 8ZM9.00013 12.483C8.06632 12.483 7.15596 12.1917 6.39682 11.6499L7.48585 10.565C7.94303 10.8397 8.46626 10.9861 9.00013 10.9887C9.7958 10.9887 10.5589 10.6738 11.1215 10.1133C11.6841 9.55284 12.0002 8.79265 12.0002 8C11.9976 7.46815 11.8507 6.9469 11.575 6.49145L12.664 5.40656C13.144 6.07627 13.4295 6.86487 13.4888 7.68567C13.5482 8.50648 13.3793 9.32771 13.0007 10.0591C12.622 10.7905 12.0482 11.4037 11.3424 11.8313C10.6367 12.259 9.8262 12.4845 9.00013 12.483Z" fill="white"/>
</svg>
