<svg width="18" height="16" viewBox="0 0 18 16" fill="none" xmlns="http://www.w3.org/2000/svg">
<path d="M17.8657 7.454C17.2072 6.174 14.625 2 8.99996 2C3.37496 2 0.792714 6.174 0.134214 7.454C0.0458182 7.62553 6.10352e-05 7.81199 6.10352e-05 8.00067C6.10352e-05 8.18934 0.0458182 8.3758 0.134214 8.54733C0.792714 9.826 3.37496 14 8.99996 14C14.625 14 17.2072 9.826 17.8657 8.546C17.9539 8.37466 17.9996 8.18843 17.9996 8C17.9996 7.81157 17.9539 7.62534 17.8657 7.454ZM8.99996 12C8.10995 12 7.23992 11.7654 6.4999 11.3259C5.75988 10.8864 5.1831 10.2616 4.84251 9.53073C4.50191 8.79983 4.4128 7.99556 4.58643 7.21964C4.76006 6.44371 5.18865 5.73098 5.81798 5.17157C6.44732 4.61216 7.24914 4.2312 8.12206 4.07686C8.99497 3.92252 9.89977 4.00173 10.722 4.30448C11.5443 4.60723 12.2471 5.11992 12.7416 5.77772C13.236 6.43552 13.5 7.20887 13.5 8C13.4988 9.06054 13.0243 10.0773 12.1806 10.8273C11.337 11.5772 10.1931 11.9989 8.99996 12Z" fill="white"/>
<path d="M9 10.6667C10.6569 10.6667 12 9.47276 12 8C12 6.52724 10.6569 5.33333 9 5.33333C7.34315 5.33333 6 6.52724 6 8C6 9.47276 7.34315 10.6667 9 10.6667Z" fill="white"/>
</svg>
